<?xml version="1.0" encoding="utf-8"?>

<!-- Uploaded to: SVG Repo, www.svgrepo.com, Generator: SVG Repo Mixer Tools -->
<svg version="1.1" id="Icons" xmlns="http://www.w3.org/2000/svg" xmlns:xlink="http://www.w3.org/1999/xlink" 
	 viewBox="0 0 32 32" xml:space="preserve">
<style type="text/css">
	.st0{fill:none;stroke:#000000;stroke-width:2;stroke-linecap:round;stroke-linejoin:round;stroke-miterlimit:10;}
	.st1{fill:none;stroke:#000000;stroke-width:2;stroke-linejoin:round;stroke-miterlimit:10;}
</style>
<path class="st0" d="M15.8,19.2c-1.1,0.2-2,0-2.4-0.7c-0.4-0.7-0.1-1.7,0.6-2.5c-0.9-0.9-1.9-1.5-3.1-1.8c-0.3,1-1,1.8-1.8,1.8
	s-1.5-0.7-1.8-1.8C6,14.6,4.9,15.2,4.1,16c0.7,0.8,1,1.8,0.6,2.5c-0.4,0.7-1.4,0.9-2.4,0.7C2.1,19.8,2,20.4,2,21s0.1,1.2,0.2,1.8
	c1.1-0.2,2,0,2.4,0.7c0.4,0.7,0.1,1.7-0.6,2.5c0.9,0.9,1.9,1.5,3.1,1.8c0.3-1,1-1.8,1.8-1.8s1.5,0.7,1.8,1.8
	c1.2-0.3,2.3-0.9,3.1-1.8c-0.7-0.8-1-1.8-0.6-2.5c0.4-0.7,1.4-0.9,2.4-0.7c0.2-0.6,0.2-1.2,0.2-1.8S15.9,19.8,15.8,19.2z"/>
<circle class="st0" cx="9" cy="21" r="2"/>
<path class="st0" d="M13,27h15c1.1,0,2-0.9,2-2V11c0-1.1-0.9-2-2-2l-9.5,0"/>
<path class="st0" d="M29.5,26.3L18.5,9L16,5h-2.5H6C4.9,5,4,5.9,4,7l0,12"/>
</svg>