<?xml version="1.0" encoding="utf-8"?>

<svg version="1.1" id="Icons"
	xmlns="http://www.w3.org/2000/svg"
	xmlns:xlink="http://www.w3.org/1999/xlink" viewBox="0 0 32 32" xml:space="preserve">
	<style type="text/css">
	.st0{fill:none;stroke:#000000;stroke-width:2;stroke-linecap:round;stroke-linejoin:round;stroke-miterlimit:10;}
	.st1{fill:none;stroke:#000000;stroke-width:2;stroke-linejoin:round;stroke-miterlimit:10;}
	</style>
	<path class="st0" d="M8,27h19c1.1,0,2-0.9,2-2V11c0-1.1-0.9-2-2-2l-9.5,0"/>
	<path class="st0" d="M28.5,26.3L17.5,9L15,5h-2.5H5C3.9,5,3,5.9,3,7v15"/>
	<path class="st0" d="M9,26l-1.5,1.5c-1.4,1.4-3.6,1.4-5,0l0,0c-1.4-1.4-1.4-3.6,0-5L4,21"/>
	<path class="st0" d="M6,19l1.5-1.5c1.4-1.4,3.6-1.4,5,0l0,0c1.4,1.4,1.4,3.6,0,5L11,24"/>
	<line class="st0" x1="6" y1="24" x2="9" y2="21"/>
</svg>