<?xml version="1.0" encoding="utf-8"?>

<!-- Uploaded to: SVG Repo, www.svgrepo.com, Generator: SVG Repo Mixer Tools -->
<svg version="1.1" id="Icons" xmlns="http://www.w3.org/2000/svg" xmlns:xlink="http://www.w3.org/1999/xlink" 
	 viewBox="0 0 32 32" xml:space="preserve">
<style type="text/css">
	.st0{fill:none;stroke:#000000;stroke-width:2;stroke-linecap:round;stroke-linejoin:round;stroke-miterlimit:10;}
	.st1{fill:none;stroke:#000000;stroke-width:2;stroke-linejoin:round;stroke-miterlimit:10;}
</style>
<path class="st0" d="M13.2,17.9c-1.1-1.2-2.9-1.2-4,0l-1.7,1.7l-1.7-1.7c-1.1-1.2-2.9-1.2-4,0s-1.1,3,0,4.2l1.7,1.7l4,4.2l4-4.2
	l1.7-1.7C14.3,20.9,14.3,19,13.2,17.9z"/>
<path class="st0" d="M9,27h18c1.1,0,2-0.9,2-2V11c0-1.1-0.9-2-2-2l-9.5,0"/>
<path class="st0" d="M28.5,26.3L17.5,9L15,5h-2.5H5C3.9,5,3,5.9,3,7v10"/>
</svg>