<svg version="1.1" id="Icons"
	xmlns="http://www.w3.org/2000/svg"
	xmlns:xlink="http://www.w3.org/1999/xlink" viewBox="0 0 32 32" xml:space="preserve">
	<style type="text/css">
	.st0{fill:none;stroke:#000000;stroke-width:2;stroke-linecap:round;stroke-linejoin:round;stroke-miterlimit:10;}
	.st1{fill:none;stroke:#000000;stroke-width:2;stroke-linejoin:round;stroke-miterlimit:10;}
	</style>
	<path class="st0" d="M8,27l19,0c1.1,0,2-0.9,2-2V11c0-1.1-0.9-2-2-2l-9.5,0"/>
	<path class="st0" d="M28.5,26.3L17.5,9L15,5h-2.5H5C3.9,5,3,5.9,3,7v15"/>
	<g>
		<path class="st1" d="M12.2,19.7c-0.5,0.9-1.3,1.4-2.4,1.5c-0.6,0.1-1-0.3-1-0.8c-0.1-1.1-0.1-2.2-0.3-3.3c-0.2-1.2-0.8-2.2-1.6-3.1
		c0,0-0.1,0-0.1,0.1c-0.5,1.3-1.4,2.4-2.2,3.6c-1.1,1.4-1.6,3-1.6,4.8C3.1,24.9,5.4,27,8,27c2.4,0,4.5-1.7,4.9-3.9
		c0.3-1.2,0.1-2.7-0.4-3.8C12.4,19.5,12.3,19.6,12.2,19.7z"/>
	</g>
</svg>